{
    "asset" : {
        "generator" : "Khronos glTF Blender I/O v3.4.50",
        "version" : "2.0"
    },
    "extensionsUsed" : [
        "KHR_materials_unlit"
    ],
    "scene" : 0,
    "scenes" : [
        {
            "name" : "Scene",
            "nodes" : [
                0,
                1
            ]
        }
    ],
    "nodes" : [
        {
            "mesh" : 0,
            "name" : "leave",
            "rotation" : [
                -0.5920769572257996,
                0.4987659156322479,
                -0.23040445148944855,
                0.5895686745643616
            ],
            "scale" : [
                2.612978458404541,
                2.612978219985962,
                2.612978219985962
            ],
            "translation" : [
                -1.9892654418945312,
                12.481597900390625,
                1.8965568542480469
            ]
        },
        {
            "mesh" : 1,
            "name" : "stem.001",
            "rotation" : [
                -0.5920769572257996,
                0.4987659156322479,
                -0.23040445148944855,
                0.5895686745643616
            ],
            "scale" : [
                2.612978458404541,
                2.612978219985962,
                2.612978219985962
            ],
            "translation" : [
                -1.9892654418945312,
                12.481597900390625,
                1.8965568542480469
            ]
        }
    ],
    "materials" : [
        {
            "doubleSided" : true,
            "extensions" : {
                "KHR_materials_unlit" : {}
            },
            "name" : "Material.002",
            "pbrMetallicRoughness" : {
                "metallicFactor" : 0,
                "roughnessFactor" : 0.9
            }
        },
        {
            "doubleSided" : true,
            "extensions" : {
                "KHR_materials_unlit" : {}
            },
            "name" : "Material.001",
            "pbrMetallicRoughness" : {
                "metallicFactor" : 0,
                "roughnessFactor" : 0.9
            }
        }
    ],
    "meshes" : [
        {
            "name" : "Cone",
            "primitives" : [
                {
                    "attributes" : {
                        "POSITION" : 0,
                        "TEXCOORD_0" : 1,
                        "NORMAL" : 2
                    },
                    "indices" : 3,
                    "material" : 0
                }
            ]
        },
        {
            "name" : "Cone.002",
            "primitives" : [
                {
                    "attributes" : {
                        "POSITION" : 4,
                        "TEXCOORD_0" : 5,
                        "NORMAL" : 6
                    },
                    "indices" : 7,
                    "material" : 1
                }
            ]
        }
    ],
    "accessors" : [
        {
            "bufferView" : 0,
            "componentType" : 5126,
            "count" : 64000,
            "max" : [
                4.311877727508545,
                3.082895278930664,
                3.312058925628662
            ],
            "min" : [
                -0.9547754526138306,
                -2.3266549110412598,
                -2.599886655807495
            ],
            "type" : "VEC3"
        },
        {
            "bufferView" : 1,
            "componentType" : 5126,
            "count" : 64000,
            "type" : "VEC2"
        },
        {
            "bufferView" : 2,
            "componentType" : 5126,
            "count" : 64000,
            "type" : "VEC3"
        },
        {
            "bufferView" : 3,
            "componentType" : 5123,
            "count" : 93000,
            "type" : "SCALAR"
        },
        {
            "bufferView" : 4,
            "componentType" : 5126,
            "count" : 768,
            "max" : [
                6.762249946594238,
                1.0666167736053467,
                0.6154451966285706
            ],
            "min" : [
                2.139054775238037,
                -1.34224271774292,
                -3.035676956176758
            ],
            "type" : "VEC3"
        },
        {
            "bufferView" : 5,
            "componentType" : 5126,
            "count" : 768,
            "type" : "VEC2"
        },
        {
            "bufferView" : 6,
            "componentType" : 5126,
            "count" : 768,
            "type" : "VEC3"
        },
        {
            "bufferView" : 7,
            "componentType" : 5123,
            "count" : 1488,
            "type" : "SCALAR"
        }
    ],
    "bufferViews" : [
        {
            "buffer" : 0,
            "byteLength" : 768000,
            "byteOffset" : 0,
            "target" : 34962
        },
        {
            "buffer" : 0,
            "byteLength" : 512000,
            "byteOffset" : 768000,
            "target" : 34962
        },
        {
            "buffer" : 0,
            "byteLength" : 768000,
            "byteOffset" : 1280000,
            "target" : 34962
        },
        {
            "buffer" : 0,
            "byteLength" : 186000,
            "byteOffset" : 2048000,
            "target" : 34963
        },
        {
            "buffer" : 0,
            "byteLength" : 9216,
            "byteOffset" : 2234000,
            "target" : 34962
        },
        {
            "buffer" : 0,
            "byteLength" : 6144,
            "byteOffset" : 2243216,
            "target" : 34962
        },
        {
            "buffer" : 0,
            "byteLength" : 9216,
            "byteOffset" : 2249360,
            "target" : 34962
        },
        {
            "buffer" : 0,
            "byteLength" : 2976,
            "byteOffset" : 2258576,
            "target" : 34963
        }
    ],
    "buffers" : [
        {
            "byteLength" : 2261552,
            "uri" : "data:application/octet-stream;base64,"
        }
    ]
}
