{
    "asset" : {
        "generator" : "Khronos glTF Blender I/O v3.4.50",
        "version" : "2.0"
    },
    "scene" : 0,
    "scenes" : [
        {
            "name" : "Scene",
            "nodes" : [
                0
            ]
        }
    ],
    "nodes" : [
        {
            "mesh" : 0,
            "name" : "Cube.002",
            "rotation" : [
                0.023127393797039986,
                0.22675089538097382,
                0.09879747033119202,
                0.9686527848243713
            ],
            "translation" : [
                1.1333140134811401,
                0,
                2.4241044521331787
            ]
        }
    ],
    "materials" : [
        {
            "doubleSided" : true,
            "name" : "Material.001",
            "pbrMetallicRoughness" : {
                "baseColorFactor" : [
                    0.05221756920218468,
                    0.8000000715255737,
                    0.10118459910154343,
                    1
                ],
                "metallicFactor" : 0,
                "roughnessFactor" : 0.5
            }
        }
    ],
    "meshes" : [
        {
            "name" : "Cube.007",
            "primitives" : [
                {
                    "attributes" : {
                        "POSITION" : 0,
                        "TEXCOORD_0" : 1,
                        "NORMAL" : 2
                    },
                    "indices" : 3,
                    "material" : 0
                }
            ]
        }
    ],
    "accessors" : [
        {
            "bufferView" : 0,
            "componentType" : 5126,
            "count" : 9596,
            "max" : [
                4.782629489898682,
                4.013550758361816,
                6.181496620178223
            ],
            "min" : [
                -4.061623573303223,
                -4.060999393463135,
                -4.201448440551758
            ],
            "type" : "VEC3"
        },
        {
            "bufferView" : 1,
            "componentType" : 5126,
            "count" : 9596,
            "type" : "VEC2"
        },
        {
            "bufferView" : 2,
            "componentType" : 5126,
            "count" : 9596,
            "type" : "VEC3"
        },
        {
            "bufferView" : 3,
            "componentType" : 5123,
            "count" : 14100,
            "type" : "SCALAR"
        }
    ],
    "bufferViews" : [
        {
            "buffer" : 0,
            "byteLength" : 115152,
            "byteOffset" : 0,
            "target" : 34962
        },
        {
            "buffer" : 0,
            "byteLength" : 76768,
            "byteOffset" : 115152,
            "target" : 34962
        },
        {
            "buffer" : 0,
            "byteLength" : 115152,
            "byteOffset" : 191920,
            "target" : 34962
        },
        {
            "buffer" : 0,
            "byteLength" : 28200,
            "byteOffset" : 307072,
            "target" : 34963
        }
    ],
    "buffers" : [
        {
            "byteLength" : 335272,
            "uri" : "data:application/octet-stream;base64,"
        }
    ]
}
